# xmcd
#
# Track frame offsets: 
#        150
#        16430
#        36477
#        55922
#        76210
#        101182
#        120692
#        140870
#        160560
#        180475
#        199765
#        222810
#        246375
#
# Disc length: 3300 seconds
#
# Revision: 3
# Processed by: cddbd v1.5.2PL0 Copyright (c) Steve Scherf et al.
# Submitted via: ExactAudioCopy v1.0b3
#
DISCID=b90ce20d
DTITLE=Toni Braxton - Secrets
DYEAR=1996
DGENRE=R&B
TTITLE0=Come On Over Here
TTITLE1=You're Makin Me High
TTITLE2=There's No Me Without You
TTITLE3=Un-Break My Heart
TTITLE4=Talking In His Sleep
TTITLE5=How Could An Angle Break My Heart
TTITLE6=Find Me A Man
TTITLE7=Let It Flow
TTITLE8=Why Should I Care
TTITLE9=I Don't Want To
TTITLE10=I Love Me Some Him
TTITLE11=In The Late Of Night
TTITLE12=Toni's Secrets
EXTD=
EXTT0=
EXTT1=
EXTT2=
EXTT3=
EXTT4=
EXTT5=
EXTT6=
EXTT7=
EXTT8=
EXTT9=
EXTT10=
EXTT11=
EXTT12=
PLAYORDER=
